<svg width="231" height="78" viewBox="0 0 231 78" fill="none" xmlns="http://www.w3.org/2000/svg">
<path d="M209.411 5.44578C209.937 2.43834 214.787 0.773444 220.266 1.73108C225.744 2.68874 229.758 5.9033 229.233 8.91072L215.871 64.6197L215.867 64.6191C216.203 62.6971 213.613 60.6383 210.082 60.0211C206.662 59.4234 203.614 60.3972 203.121 62.2057L203.081 62.3841L209.411 5.44578Z" fill="#FE3231"/>
<circle cx="208.346" cy="69.9667" r="6.27087" transform="rotate(-170.084 208.346 69.9667)" fill="#FE3231"/>
<path d="M173.504 8.48315L167.384 43.0612H169.628L181.562 25.2112H202.37L202.166 26.3332L182.684 49.0792L194.516 72.8452L194.312 73.9672H175.34L167.894 55.4032H165.242L161.978 73.9672H144.638L156.164 8.48315H173.504Z" fill="#FE3231"/>
<path d="M116.563 47.2432L111.871 73.9672H94.5309L103.099 25.2112H119.929L117.583 38.3692H118.705C123.295 28.3732 129.619 23.6812 136.555 23.6812C145.021 23.6812 148.795 30.2092 146.857 41.4292L141.043 73.9672H123.703L128.701 45.4072C129.415 41.5312 127.885 39.2872 124.519 39.2872C120.337 39.2872 117.379 42.5512 116.563 47.2432Z" fill="#FE3231"/>
<path d="M69.2142 60.2992C73.1922 60.2992 76.3542 57.0352 77.1702 52.0372V52.3432L77.3742 51.1192L77.8842 48.0592V48.1612C78.9042 42.7552 76.6602 39.2872 72.1722 39.2872C67.3782 39.2872 64.8282 42.5512 63.6042 49.2832C62.2782 56.5252 64.0122 60.2992 69.2142 60.2992ZM47.0802 47.9572C49.8342 32.0452 56.7702 23.6812 66.0522 23.6812C73.3962 23.6812 77.8842 28.7812 79.0062 37.8592L79.8222 37.2472L81.9642 25.2112H99.3042L90.7362 73.9672H73.3962L75.6402 61.1152L75.2322 61.4212L75.5382 59.7892C71.3562 69.4792 65.4402 75.4972 57.8922 75.4972C48.5082 75.4972 43.8162 65.9092 47.0802 47.9572Z" fill="#FE3231"/>
<path d="M29.07 73.9672H10.71L13.974 55.3012L0 13.8892L0.204 12.7672H20.094L24.684 39.6952H26.316L40.902 12.7672H61.2L60.996 13.8892L32.436 55.1992L29.07 73.9672Z" fill="#FE3231"/>
</svg>
