<?xml version="1.0" encoding="UTF-8"?>
<!--Generator: Apple Native CoreSVG 341-->
<!DOCTYPE svg
PUBLIC "-//W3C//DTD SVG 1.1//EN"
       "http://www.w3.org/Graphics/SVG/1.1/DTD/svg11.dtd">
<svg version="1.1" xmlns="http://www.w3.org/2000/svg" xmlns:xlink="http://www.w3.org/1999/xlink" viewBox="0 0 21.7913 17.2299">
 <g>
  <rect height="17.2299" opacity="0" width="21.7913" x="0" y="0"/>
  <path d="M18.7321 15.3123C19.0948 15.5527 19.5403 15.4781 19.8035 15.0968C21.0517 13.3859 21.7913 11.016 21.7913 8.60871C21.7913 6.20143 21.0621 3.81084 19.8035 2.12058C19.5403 1.73931 19.0948 1.66475 18.7321 1.90512C18.3716 2.1476 18.3074 2.60344 18.5934 3.00962C19.6677 4.5159 20.2724 6.53094 20.2724 8.60871C20.2724 10.6865 19.647 12.6912 18.5934 14.2078C18.3177 14.614 18.3716 15.0698 18.7321 15.3123Z" fill="black" fill-opacity="0.85"/>
  <path d="M15.112 12.7722C15.4437 12.9918 15.8995 12.9255 16.1627 12.5464C16.9103 11.5558 17.3633 10.1065 17.3633 8.60871C17.3633 7.11088 16.9103 5.67195 16.1627 4.67105C15.8995 4.29189 15.4437 4.22558 15.112 4.45558C14.7225 4.72912 14.6562 5.20778 14.9608 5.61396C15.5327 6.38965 15.8444 7.47165 15.8444 8.60871C15.8444 9.74576 15.5223 10.8174 14.9608 11.6035C14.6666 12.02 14.7225 12.4883 15.112 12.7722Z" fill="black" fill-opacity="0.85"/>
  <path d="M1.98926 12.586L4.77941 12.586C4.87104 12.586 4.95215 12.6151 5.01254 12.6734L9.4228 16.6182C9.88497 17.0307 10.2542 17.2299 10.7229 17.2299C11.3451 17.2299 11.824 16.7673 11.824 16.1286L11.824 1.16129C11.824 0.532903 11.3451 0.00612167 10.7022 0.00612167C10.2335 0.00612167 9.92848 0.219868 9.4228 0.679926L5.01254 4.58582C4.95215 4.6441 4.87104 4.66903 4.77941 4.66903L1.98926 4.66903C0.651425 4.66903 0.000217094 5.34937 0.000217094 6.7679L0.000217094 10.5038C0.000217094 11.912 0.663878 12.586 1.98926 12.586ZM2.05137 11.1623C1.69361 11.1623 1.51918 10.9961 1.51918 10.6259L1.51918 6.63335C1.51918 6.27137 1.69361 6.09483 2.05137 6.09483L5.17887 6.09483C5.42828 6.09483 5.6173 6.05744 5.8437 5.84349L10.0117 2.0639C10.0596 2.02019 10.1116 1.98684 10.172 1.98684C10.2406 1.98684 10.2947 2.03879 10.2947 2.122L10.2947 15.1016C10.2947 15.1972 10.2406 15.2492 10.1741 15.2492C10.12 15.2492 10.0681 15.2242 10.0138 15.1639L5.8437 11.4136C5.61941 11.2142 5.42828 11.1623 5.17887 11.1623Z" fill="black" fill-opacity="0.85"/>
 </g>
</svg>
